
<svg width="24" height="24" viewBox="0 0 24 24" fill="#E4405F" xmlns="http://www.w3.org/2000/svg">
  <rect width="24" height="24" rx="4" fill="#E4405F"/>
  <path d="M12 7.2C9.7 7.2 7.8 9.1 7.8 11.4C7.8 13.7 9.7 15.6 12 15.6C14.3 15.6 16.2 13.7 16.2 11.4C16.2 9.1 14.3 7.2 12 7.2ZM12 14.1C10.6 14.1 9.5 13 9.5 11.6C9.5 10.2 10.6 9.1 12 9.1C13.4 9.1 14.5 10.2 14.5 11.6C14.5 13 13.4 14.1 12 14.1ZM17.4 6.6C17.4 7.1 17 7.5 16.5 7.5C16 7.5 15.6 7.1 15.6 6.6C15.6 6.1 16 5.7 16.5 5.7C17 5.7 17.4 6.1 17.4 6.6ZM18.7 8.4C18.6 7 18.1 6 17 5C16 4 15 3.4 13.6 3.3C11.3 3.2 8.7 3.2 6.4 3.3C5 3.4 4 4 3 5C2 6 1.4 7 1.3 8.4C1.2 10.7 1.2 13.3 1.3 15.6C1.4 17 2 18 3 19C4 20 5 20.6 6.4 20.7C8.7 20.8 11.3 20.8 13.6 20.7C15 20.6 16 20 17 19C18 18 18.6 17 18.7 15.6C18.8 13.3 18.8 10.7 18.7 8.4Z" fill="white"/>
</svg>
